<svg width="30" height="26" viewBox="0 0 30 26" fill="none" xmlns="http://www.w3.org/2000/svg">
<path d="M28.8859 14.5808H24.7907V10.645H28.8859C29.5012 10.645 30 10.1467 30 9.5312C30 8.91568 29.5012 8.41708 28.8859 8.41708H24.7907V2.95597C24.7907 2.15879 24.6331 1.57368 24.3226 1.21725C24.0275 0.878178 23.6394 0.720398 23.1021 0.720398C22.5893 0.720398 22.2159 0.877089 21.9265 1.21405C21.6195 1.57084 21.4638 2.15704 21.4638 2.95633V8.41774H13.7605L10.4851 3.46141C10.2048 3.01908 9.94126 2.60474 9.68531 2.20703C9.45486 1.84885 9.2301 1.55723 9.0178 1.33949C8.82985 1.1467 8.61567 0.99751 8.36516 0.882832C8.12879 0.774926 7.82828 0.720761 7.47277 0.720761C7.01932 0.720761 6.6077 0.844989 6.21355 1.10022C5.82352 1.35266 5.5539 1.66478 5.38923 2.05445C5.24469 2.42478 5.16822 2.99224 5.16822 3.72474V8.41738H1.11371C0.498487 8.41744 0 8.91605 0 9.53151C0 10.147 0.498487 10.6453 1.11377 10.6453H5.16828V14.5815H1.11377C0.498487 14.5815 0 15.08 0 15.6956C0 16.3109 0.498487 16.809 1.11377 16.809H5.16828V23.0442C5.16828 23.8178 5.33083 24.397 5.6528 24.765C5.95899 25.116 6.34721 25.2789 6.87441 25.2789C7.38306 25.2789 7.76826 25.1152 8.08768 24.7636C8.41479 24.4035 8.58025 23.8246 8.58025 23.0443V16.809H15.5508L19.323 22.5932C19.5853 22.9756 19.8561 23.3615 20.1262 23.7399C20.3699 24.0797 20.6358 24.3792 20.9163 24.6293C21.1689 24.8555 21.4397 25.0212 21.7212 25.1224C22.011 25.2267 22.3497 25.2796 22.7256 25.2796C23.7458 25.2796 24.7906 24.9673 24.7906 22.6512V16.809H28.8857C29.5011 16.809 29.9999 16.3102 29.9999 15.6949C30 15.0796 29.5012 14.5808 28.8859 14.5808ZM21.4637 10.6449V14.5807H17.8341L15.2334 10.6449H21.4637ZM8.58031 6.12256L10.0771 8.41708H8.58031V6.12256ZM8.58031 14.5808V10.645H11.5305L14.0976 14.5808H8.58031ZM21.4637 20.0742L19.3066 16.809H21.4637V20.0742Z" fill="#3B3B3B" stroke="#0A0A0A"/>
</svg>
